<svg version="1.2" xmlns="http://www.w3.org/2000/svg" viewBox="0 0 100 100" width="100" height="100">
	<title>file</title>
	<style>
		tspan { white-space:pre } 
		.s0 { fill: #c7ede6 } 
		.s1 { fill: #fdfcef } 
		.s2 { fill: #472b29 } 
		.s3 { fill: #ffffff } 
		.t4 { font-size: 26px;fill: #000000;font-family: "Agbalumo" } 
	</style>
	<path class="s0" d="m87.2 56.7c1.1-2.1 1.8-4.6 1.8-7.2 0-6.6-4.2-12.3-10-14.5q0 0 0 0c0-11.6-9.4-21-21-21-9.8 0-18 6.7-20.3 15.8-1.5-0.5-3.1-0.8-4.7-0.8-7.7 0-14 5.8-14.9 13.3-5.2 1.1-9.1 5.7-9.1 11.2 0 6.4 5.1 11.5 11.5 11.5q0.3 0 0.5 0 0 0.2 0 0.5c0 11.3 9.2 20.5 20.5 20.5 6.4 0 12.2-3 15.9-7.6 2.2 2.2 5.2 3.6 8.6 3.6 4.7 0 8.7-2.7 10.7-6.5q1.5 0.5 3.3 0.5c6.1 0 11-4.9 11-11 0-3.3-1.5-6.3-3.8-8.3z"/>
	<path class="s1" d="m72.9 82.5c0 0 3.6 0 6.1 0 2.5 0 4.5-2 4.5-4.5 0-2.3-1.8-4.2-4.1-4.5q0.1-0.2 0.1-0.5c0-2.5-2-4.5-4.5-4.5-1.4 0-2.7 0.7-3.5 1.7-0.2-2.6-2.3-4.7-5-4.7-2.8 0-5 2.2-5 5q0 0.7 0.2 1.3c-0.7-0.8-1.6-1.3-2.7-1.3-1.8 0-3.2 1.3-3.5 3.1q-0.2-0.1-0.5-0.1c-2.5 0-4.5 2-4.5 4.5 0 2.5 2 4.5 4.5 4.5 2.5 0 9.5 0 9.5 0h5.4v0.5h3z"/>
	<path class="s2" d="m66.5 65c-3 0-5.5 2.5-5.5 5.5q0 0 0 0c-0.6-0.3-1.3-0.5-2-0.5-1.8 0-3.4 1.3-3.9 3q0 0-0.1 0c-2.8 0-5 2.2-5 5 0 2.8 2.2 5 5 5h14.9c0.3 0 0.5-0.2 0.5-0.5 0-0.3-0.2-0.5-0.5-0.5h-14.9c-2.2 0-4-1.8-4-4 0-2.2 1.8-4 4-4q0.2 0 0.3 0l0.2 0.1q0 0 0 0c0.3 0 0.5-0.2 0.5-0.5 0.2-1.5 1.5-2.6 3-2.6 0.9 0 1.7 0.4 2.3 1.1q0.2 0.2 0.4 0.2 0.1 0 0.2-0.1c0.2-0.1 0.3-0.3 0.3-0.5q-0.2-0.7-0.2-1.2c0-2.5 2-4.5 4.5-4.5 2.4 0 4.3 1.9 4.5 4.3 0 0.2 0.1 0.4 0.3 0.4q0.1 0 0.2 0 0.2 0 0.4-0.2c0.7-0.9 1.9-1.5 3.1-1.5 2.2 0 4 1.8 4 4q0 0.2 0 0.3l-0.1 0.2q0 0.2 0.2 0.4 0.1 0.1 0.3 0.1c2.1 0.2 3.6 1.9 3.6 4 0 2.2-1.8 4-4 4h-6.1c-0.3 0-0.5 0.2-0.5 0.5 0 0.3 0.2 0.5 0.5 0.5h6.1c2.8 0 5-2.2 5-5 0-2.4-1.7-4.4-4-4.9q0 0 0-0.1c0-2.8-2.2-5-5-5-1.2 0-2.3 0.4-3.2 1.2-0.6-2.4-2.7-4.2-5.3-4.2z"/>
	<path class="s2" d="m65 72c-1.4 0-2.6 1-2.9 2.3q-0.6-0.3-1.2-0.3c-1.2 0-2.2 0.9-2.4 2.1q-0.3-0.1-0.6-0.1c-1.5 0-2.8 1.2-2.9 2.7 0 0.2 0.1 0.3 0.3 0.3q0 0 0 0c0.1 0 0.2-0.1 0.2-0.2 0.1-1.3 1.2-2.3 2.4-2.3q0.4 0 0.8 0.1 0 0 0 0 0.1 0 0.2 0 0.1-0.1 0.1-0.2c0-1.1 0.8-1.9 1.9-1.9 0.4 0 0.9 0.2 1.2 0.5q0.1 0 0.2 0 0 0 0.1 0 0.1 0 0.1-0.2c0.1-1.3 1.2-2.3 2.5-2.3q0.3 0 0.7 0.1 0 0 0.1 0c0.1 0 0.2-0.1 0.2-0.2 0-0.1 0-0.2-0.2-0.3q-0.4-0.1-0.8-0.1z"/>
	<path class="s2" d="m78.9 73.5c-1.3 0-2.5 0.9-2.9 2.2 0 0.1 0 0.3 0.2 0.3q0 0 0 0c0.2 0 0.3-0.1 0.3-0.2 0.3-1.1 1.3-1.8 2.4-1.8q0.2 0 0.3 0 0 0 0.1 0c0.1 0 0.2-0.1 0.2-0.2 0-0.1-0.1-0.2-0.2-0.3q-0.2 0-0.4 0z"/>
	<path class="s3" d="m29.4 74h-9.9c-0.3 0-0.5-0.2-0.5-0.5 0-0.3 0.2-0.5 0.5-0.5h9.9c0.3 0 0.5 0.2 0.5 0.5 0 0.3-0.2 0.5-0.5 0.5z"/>
	<path class="s3" d="m32.5 74h-1c-0.3 0-0.5-0.2-0.5-0.5 0-0.3 0.2-0.5 0.5-0.5h1c0.3 0 0.5 0.2 0.5 0.5 0 0.3-0.2 0.5-0.5 0.5z"/>
	<path class="s3" d="m37.5 76h-9c-0.3 0-0.5-0.2-0.5-0.5 0-0.3 0.2-0.5 0.5-0.5h9c0.3 0 0.5 0.2 0.5 0.5 0 0.3-0.2 0.5-0.5 0.5z"/>
	<path class="s3" d="m26.5 76h-1c-0.3 0-0.5-0.2-0.5-0.5 0-0.3 0.2-0.5 0.5-0.5h1c0.3 0 0.5 0.2 0.5 0.5 0 0.3-0.2 0.5-0.5 0.5z"/>
	<path class="s3" d="m23.5 76h-2c-0.3 0-0.5-0.2-0.5-0.5 0-0.3 0.2-0.5 0.5-0.5h2c0.3 0 0.5 0.2 0.5 0.5 0 0.3-0.2 0.5-0.5 0.5z"/>
	<path class="s3" d="m29.5 78h-2c-0.3 0-0.5-0.2-0.5-0.5 0-0.3 0.2-0.5 0.5-0.5h2c0.3 0 0.5 0.2 0.5 0.5 0 0.3-0.2 0.5-0.5 0.5z"/>
	<path class="s3" d="m32.5 69c-0.2 0-0.8 0-1 0-0.3 0-0.5 0.2-0.5 0.5 0 0.3 0.2 0.5 0.5 0.5 0.2 0 0.8 0 1 0 0.3 0 0.5-0.2 0.5-0.5 0-0.3-0.2-0.5-0.5-0.5z"/>
	<path class="s3" d="m32.5 71c-0.2 0-4.8 0-5 0-0.3 0-0.5 0.2-0.5 0.5 0 0.3 0.2 0.5 0.5 0.5 0.2 0 4.8 0 5 0 0.3 0 0.5-0.2 0.5-0.5 0-0.3-0.2-0.5-0.5-0.5z"/>
	<path class="s3" d="m37.5 73c-0.2 0-2.8 0-3 0-0.3 0-0.5 0.2-0.5 0.5 0 0.3 0.2 0.5 0.5 0.5 0.2 0 2.8 0 3 0 0.3 0 0.5-0.2 0.5-0.5 0-0.3-0.2-0.5-0.5-0.5z"/>
	<path class="s3" d="m72.5 24h-10c-0.3 0-0.5-0.2-0.5-0.5 0-0.3 0.2-0.5 0.5-0.5h10c0.3 0 0.5 0.2 0.5 0.5 0 0.3-0.2 0.5-0.5 0.5z"/>
	<path class="s3" d="m76.5 24h-2c-0.3 0-0.5-0.2-0.5-0.5 0-0.3 0.2-0.5 0.5-0.5h2c0.3 0 0.5 0.2 0.5 0.5 0 0.3-0.2 0.5-0.5 0.5z"/>
	<path class="s3" d="m81.5 26h-10c-0.3 0-0.5-0.2-0.5-0.5 0-0.3 0.2-0.5 0.5-0.5h10c0.3 0 0.5 0.2 0.5 0.5 0 0.3-0.2 0.5-0.5 0.5z"/>
	<path class="s3" d="m69.5 26h-1c-0.3 0-0.5-0.2-0.5-0.5 0-0.3 0.2-0.5 0.5-0.5h1c0.3 0 0.5 0.2 0.5 0.5 0 0.3-0.2 0.5-0.5 0.5z"/>
	<path class="s3" d="m66.4 26h-1.9c-0.3 0-0.5-0.2-0.5-0.5 0-0.3 0.2-0.5 0.5-0.5h1.9c0.3 0 0.5 0.2 0.5 0.5 0 0.3-0.2 0.5-0.5 0.5z"/>
	<path class="s3" d="m75.5 22h-5c-0.3 0-0.5-0.2-0.5-0.5 0-0.3 0.2-0.5 0.5-0.5h5c0.3 0 0.5 0.2 0.5 0.5 0 0.3-0.2 0.5-0.5 0.5z"/>
	<path class="s3" d="m72.5 28h-2c-0.3 0-0.5-0.2-0.5-0.5 0-0.3 0.2-0.5 0.5-0.5h2c0.3 0 0.5 0.2 0.5 0.5 0 0.3-0.2 0.5-0.5 0.5z"/>
	<g>
		<path class="s1" d="m47.5 33.5c0 0 1.6 0 3.5 0 1.9 0 3.5-1.6 3.5-3.5 0-1.8-1.3-3.2-3.1-3.5q0.1-0.2 0.1-0.5c0-1.9-1.6-3.5-3.5-3.5-1 0-2 0.5-2.6 1.2-0.4-1.8-2-3.2-3.9-3.2-2.2 0-4 1.8-4 4q0 0.3 0.1 0.6c-0.5-0.4-1-0.6-1.6-0.6-1.2 0-2.2 0.9-2.5 2.1q-0.2-0.1-0.5-0.1c-1.9 0-3.5 1.6-3.5 3.5 0 1.9 1.6 3.5 3.5 3.5 1.9 0 7.5 0 7.5 0v0.5h7z"/>
		<path class="s2" d="m49.3 29c-0.2 0-0.3-0.1-0.3-0.3 0-1.2 1-2.2 2.2-2.2 0.1 0 0.8 0 1.3 0.2 0.1 0 0.2 0.1 0.1 0.3 0 0.1-0.1 0.2-0.3 0.1-0.4-0.1-1.1-0.1-1.1-0.1-0.9 0-1.7 0.8-1.7 1.8 0 0.1-0.1 0.2-0.2 0.2z"/>
		<path class="s2" d="m42.5 34c-0.3 0-0.5-0.2-0.5-0.5 0-0.3 0.2-0.5 0.5-0.5 0.3 0 0.5 0.2 0.5 0.5 0 0.3-0.2 0.5-0.5 0.5z"/>
		<path class="s2" d="m51 34h-3.5c-0.3 0-0.5-0.2-0.5-0.5 0-0.3 0.2-0.5 0.5-0.5h3.5c1.7 0 3-1.3 3-3 0-1.5-1.1-2.8-2.6-3q-0.2 0-0.4-0.2-0.1-0.1 0-0.3 0-0.3 0-0.5c0-1.7-1.3-3-3-3-0.9 0-1.6 0.4-2.2 1-0.1 0.1-0.3 0.2-0.5 0.1-0.2 0-0.3-0.1-0.4-0.3-0.3-1.6-1.8-2.8-3.4-2.8-1.9 0-3.5 1.6-3.5 3.5q0 0.2 0 0.4c0.1 0.2 0 0.5-0.2 0.6-0.2 0.1-0.4 0.1-0.6-0.1q-0.5-0.4-1.2-0.4c-1 0-1.8 0.7-2 1.6 0 0.3-0.3 0.5-0.5 0.4q-0.3 0-0.5 0c-1.7 0-3 1.3-3 3 0 1.7 1.3 3 3 3h7.5c0.3 0 0.5 0.2 0.5 0.5 0 0.3-0.2 0.5-0.5 0.5h-7.5c-2.2 0-4-1.8-4-4 0-2.2 1.8-4 4-4q0.1 0 0.2 0c0.4-1.2 1.5-2 2.8-2q0.5 0 1 0.2c0.2-2.4 2.1-4.2 4.5-4.2 1.8 0 3.5 1.1 4.2 2.8 0.6-0.5 1.5-0.8 2.3-0.8 2.2 0 4 1.8 4 4q0 0.1 0 0.1c1.7 0.5 3 2.1 3 3.9 0 2.2-1.8 4-4 4z"/>
		<path class="s2" d="m45.5 33c-0.2 0-0.8 0-1 0-0.3 0-0.5 0.2-0.5 0.5 0 0.3 0.2 0.5 0.5 0.5 0.2 0 0.8 0 1 0 0.3 0 0.5-0.2 0.5-0.5 0-0.3-0.2-0.5-0.5-0.5z"/>
	</g>
	<text id="Metube" style="transform: matrix(.772,-0.035,.01,.855,11.321,61.513);paint-order:stroke fill markers;stroke: #000000;stroke-width: 2;stroke-linejoin: round;" >
		<tspan x="0" y="0" class="t4">Metube
</tspan>
	</text>
</svg>